<svg id="Social_-_Share" data-name="Social - Share" xmlns="http://www.w3.org/2000/svg" width="94" height="113" viewBox="0 0 94 113">
  <rect id="Square" width="94" height="113" fill="none"/>
  <path id="Share" d="M46.98,89.145a20.571,20.571,0,0,1,.471-11.035c-4.923-2.668-11.063-3.922-16.187-5.322a16.567,16.567,0,0,1-11.016,6.186C11.082,80.129,2.655,73.605.529,63.574-3.637,43.982,17.837,34.457,29.471,42.455c4.8-4.529,9.947-8.7,14.953-12.984a21.67,21.67,0,0,1-1.962-5.512C37.072-1.391,74.6-9.895,78.208,14.609c.018.123.032.246.042.365a5.874,5.874,0,0,1,.1.869c.436,11.449-5.345,22.15-16.166,23.51a16.755,16.755,0,0,1-12-3.127c-5.1,4.348-10.342,8.6-15.185,13.227a20.565,20.565,0,0,1,1.276,4.779c.018.123.032.244.043.363a5.933,5.933,0,0,1,.1.869,29.881,29.881,0,0,1-.954,8.832c5.69,1.5,12.022,3.016,17.073,6.162C62.21,61.738,80.276,63.17,82.727,79.8c.016.105.028.209.038.314a5.868,5.868,0,0,1,.1.914c.436,11.453-5.345,22.154-16.166,23.508a16.587,16.587,0,0,1-2.1.133C56.276,104.672,48.946,98.406,46.98,89.145ZM55.336,87.8c1.472,5.322,6.217,8.359,11.114,7.379C72.56,93.965,74.6,87.7,74.486,81.52a8.676,8.676,0,0,0-8.907-7.127C59.5,74.395,53.037,79.461,55.336,87.8ZM8.885,62.236C10.353,67.553,15.1,70.6,20,69.611c6.117-1.213,8.155-7.492,8.032-13.68a8.676,8.676,0,0,0-8.9-7.105C13.047,48.828,6.586,53.895,8.885,62.236ZM50.818,22.613c1.468,5.32,6.213,8.363,11.114,7.383,6.116-1.221,8.158-7.5,8.032-13.686a8.675,8.675,0,0,0-8.9-7.105C54.981,9.205,48.519,14.275,50.818,22.613Z" transform="translate(6 4)" fill="#707070"/>
</svg>
