<svg xmlns="http://www.w3.org/2000/svg" width="93.201" height="83" viewBox="0 0 93.201 83">
  <g id="Icon_-_Camera" data-name="Icon - Camera" transform="translate(0.47)">
    <rect id="Square" width="83" height="83" fill="none"/>
    <path id="Icon_-_Camera-2" data-name="Icon - Camera" d="M10.6,75.431c-7.573-.606-10-4.7-10.406-11.917-.443-7.87,0-15.809.244-23.682C.6,34.227-.884,25.128,2.024,20.08,4.172,16.354,10.259,16.516,14,16.209c3.546-.295,7.11-.442,10.672-.507.39-1.616.853-3.2,1.227-4.864.579-2.573.553-5.7,2.346-7.841C31.663-1.072,41.177.182,45.978.182S60.223-1.043,63.714,3c1.811,2.1,1.769,5.3,2.348,7.841.379,1.667.853,3.262,1.249,4.886,3.216.058,6.434.172,9.639.406s8.346.106,11.346,2.1A2.553,2.553,0,0,1,89.787,19.7c.04.092.073.188.112.283a2.9,2.9,0,0,1,.134.341c2.61,6.575,1.4,15.517,1.608,22.4.249,8.213,1.612,17.892-.423,25.97-1.764,6.993-9.315,6.867-15.185,6.77-7.121-.118-14.247-.07-21.373-.029-4.249.027-8.5.053-12.745.046-3.467-.007-6.971.082-10.487.169-3.4.082-6.81.167-10.207.167C17.653,75.808,14.1,75.714,10.6,75.431ZM76.567,69.3c2.809.046,7.386.834,8.7-2.259.923-2.172.463-5.775.487-8.1.068-6.369-.176-12.743-.374-19.11-.1-3.221-.209-6.444-.253-9.665-.029-2.218.253-4.9-.546-7.019-2.051-1.266-8.505-.923-10.747-1.041q-4.5-.232-9.016-.271a3.168,3.168,0,0,1-3.084-3.083,47.831,47.831,0,0,0-1.474-5.69c-.45-1.81-.238-4.156-1.623-5.5-2.112-2.049-9.643-1.211-12.659-1.211-2.952,0-11.883-.959-13.4,1.979-.753,1.464-.6,3.711-1.029,5.316a37.473,37.473,0,0,0-1.306,5.106,3.174,3.174,0,0,1-3.084,3.083q-5.547.04-11.09.391a38.877,38.877,0,0,0-7.243.783c-2.568.674-1.843,1.815-1.958,4.581C6.385,39.446,5.61,51.665,6.357,63.515c.13,2.066.044,4.3,2.044,5.321a9.062,9.062,0,0,0,3.921.512c.258,0,.507,0,.738,0,1.69.01,3.385-.014,5.077-.036,1.469-.022,2.938-.043,4.408-.041,9.174.017,18.348.051,27.522.034,5.763-.007,11.53-.068,17.295-.068C70.431,69.234,73.5,69.251,76.567,69.3ZM28.683,44.634C28.91,34.674,34.709,27,45.273,27.07A18.217,18.217,0,0,1,63.267,44.7c.255,9.994-8.024,17.334-17.725,17.479H45.26C35.3,62.183,28.848,54.193,28.683,44.634ZM44.54,33.263c-6.809.321-9.546,5.161-9.687,11.371.113,6.65,4.373,11.8,11.386,11.368,6.064-.37,11.134-5.009,10.857-11.3A11.972,11.972,0,0,0,45.114,33.249C44.924,33.249,44.732,33.254,44.54,33.263Z" transform="translate(0.001 2.999)" fill="#707070" stroke="rgba(0,0,0,0)" stroke-width="1"/>
  </g>
</svg>
