<svg id="Social_-_Twitter" data-name="Social - Twitter" xmlns="http://www.w3.org/2000/svg" width="94" height="93" viewBox="0 0 94 93">
  <rect id="Square" width="94" height="93" fill="none"/>
  <path id="Twitter" d="M1.75,66.452c-2.611-2.311-2.289-6.686.895-8.072,6.229-2.727,11.094-7.221,16.95-10.52.549-.455,1.094-.9,1.644-1.355,1.306.514,1.451.428.434-.248a23.578,23.578,0,0,0-2.623-2.436,24.945,24.945,0,0,1-3.856-5.859c-5-10.449-3.856-23.43-1.878-34.684C13.773.653,16.9-.966,18.8.639,27.149,7.715,34.363,18.389,44.018,23c2.363-12.76,15.59-18.668,25.722-12.221A19.317,19.317,0,0,1,78.205,22.86c.935-.592,1.86-1.205,2.752-1.885a3.462,3.462,0,0,1,5.1,1.592A5,5,0,0,1,84.713,28.6c-.643.488-1.3.943-1.97,1.379q.985.747,1.97,1.5c4.044,3.049.288,10.693-3.767,7.629q-1.2-.9-2.391-1.807a72.761,72.761,0,0,1-3.888,14.641C67.31,71.586,52.153,80.2,36.216,80.2,24.16,80.2,11.658,75.27,1.75,66.452Zm58.478-4.539c6.678-7.352,10.756-19.475,11.4-30.1.438-7.029-2.028-12.629-8.157-14.525C56.745,15.2,50.639,20.6,51.223,28.9c.183,2.6-1.282,4-2.967,4.211a3.288,3.288,0,0,1-1.8.029C35.467,30.383,27.857,20.61,19.515,12.4a47.938,47.938,0,0,0,.491,16.248,19.51,19.51,0,0,0,6.106,10.518c1.494,1.416,2.984,2.447,3.706,4.672,2.039,6.287-4.451,10.121-8,12.92A72.079,72.079,0,0,1,11.629,63.5C26.51,73.346,46.985,76.479,60.228,61.913Z" transform="translate(4 6)" fill="#707070"/>
</svg>
